<svg id="Ebene_1" data-name="Ebene 1" xmlns="http://www.w3.org/2000/svg" viewBox="0 0 185 184"><defs><style>.cls-1,.cls-8{fill:#cb3c33;}.cls-2,.cls-9{fill:#389826;}.cls-3,.cls-7{fill:#9558b2;}.cls-4{fill:#4063d8;}.cls-11,.cls-12,.cls-13,.cls-5{fill:none;}.cls-11,.cls-12,.cls-13,.cls-5,.cls-6,.cls-7,.cls-8,.cls-9{stroke:#000;stroke-miterlimit:10;}.cls-10,.cls-6{fill:#fff;}.cls-11{stroke-dasharray:6.95 2.61;}.cls-12{stroke-dasharray:4.65 2.33;}.cls-13{stroke-dasharray:8 3;}</style></defs><circle class="cls-1" cx="48" cy="56" r="28"/><circle class="cls-2" cx="127" cy="62" r="28"/><circle class="cls-3" cx="107" cy="156" r="28"/><rect class="cls-4" y="104" width="55" height="56"/><polyline class="cls-5" points="177 0.5 28.5 0.5 28.5 18.79 177 18.79"/><polyline class="cls-5" points="185 95.5 97 95.5 97 113.79 185 113.79"/><rect class="cls-6" x="28.5" y="0.5" width="20" height="18"/><rect class="cls-7" x="97.5" y="95.5" width="20" height="18"/><rect class="cls-6" x="48.5" y="0.5" width="20" height="18"/><rect class="cls-8" x="97.5" y="0.5" width="20" height="18"/><rect class="cls-9" x="117.5" y="0.5" width="20" height="18"/><path class="cls-10" d="M77,48c0-.29,35.55-21,35.55-21" transform="translate(-6 -8)"/><path class="cls-5" d="M77,48c0-.2,17.44-10.44,27.9-16.55" transform="translate(-6 -8)"/><polygon points="98.66 26.97 106.55 18.99 95.72 21.95 98.66 26.97"/><line class="cls-10" x1="127" y1="34" x2="127" y2="18.79"/><line class="cls-5" x1="127" y1="34" x2="127" y2="27.65"/><polygon points="129.91 29.63 127 18.79 124.09 29.63 129.91 29.63"/><path class="cls-6" d="M80.26,57.26" transform="translate(-6 -8)"/><path class="cls-10" d="M80.26,56.26c8.24-3.76,19.86-3.19,28.05,1.53" transform="translate(-6 -8)"/><path class="cls-5" d="M80.26,56.26A25.4,25.4,0,0,1,84,54.9" transform="translate(-6 -8)"/><path class="cls-11" d="M86.56,54.32a34,34,0,0,1,8.22-.45" transform="translate(-6 -8)"/><path class="cls-5" d="M96.08,54a32.83,32.83,0,0,1,4,.64" transform="translate(-6 -8)"/><polygon points="91.13 48.85 102.31 49.79 93.09 43.39 91.13 48.85"/><line class="cls-10" x1="38" y1="82" x2="28" y2="104"/><line class="cls-5" x1="38" y1="82" x2="36.76" y2="84.73"/><line class="cls-12" x1="35.8" y1="86.85" x2="33.39" y2="92.14"/><line class="cls-5" x1="32.91" y1="93.2" x2="31.67" y2="95.93"/><polygon points="29.84 92.93 28 104 35.13 95.33 29.84 92.93"/><line class="cls-10" x1="69" y1="75" x2="97" y2="95"/><line class="cls-13" x1="69" y1="75" x2="89.79" y2="89.85"/><polygon points="86.49 91.06 97 95 89.87 86.33 86.49 91.06"/><line class="cls-10" x1="107" y1="128" x2="107" y2="114"/><line class="cls-5" x1="107" y1="128" x2="107" y2="122.86"/><polygon points="109.91 124.84 107 114 104.09 124.84 109.91 124.84"/></svg>