<svg id="Ebene_1" data-name="Ebene 1" xmlns="http://www.w3.org/2000/svg" viewBox="0 0 702 200.33"><defs><style>.cls-1,.cls-10,.cls-11,.cls-12,.cls-13,.cls-14,.cls-15,.cls-16,.cls-17,.cls-18,.cls-19,.cls-3,.cls-4,.cls-5,.cls-6,.cls-7,.cls-8,.cls-9{fill:none;}.cls-1,.cls-10,.cls-11,.cls-12,.cls-13,.cls-14,.cls-15,.cls-16,.cls-17,.cls-18,.cls-3,.cls-4,.cls-5,.cls-6,.cls-7,.cls-8,.cls-9{stroke:#1a171b;stroke-miterlimit:10;}.cls-2{fill:#1a171b;}.cls-3{stroke-width:2px;}.cls-4{stroke-dasharray:1.89 1.89;}.cls-5{stroke-dasharray:2 2;}.cls-6{stroke-dasharray:1.89 1.89;}.cls-7{stroke-dasharray:2.04 2.04;}.cls-8{stroke-dasharray:2.02 2.02;}.cls-9{stroke-dasharray:2.07 2.07;}.cls-10{stroke-dasharray:1.76 1.76;}.cls-11{stroke-dasharray:2.05 2.05;}.cls-12{stroke-dasharray:1.97 1.97;}.cls-13{stroke-dasharray:1.83 1.83;}.cls-14{stroke-dasharray:1.9 1.9;}.cls-15{stroke-dasharray:1.87 1.87;}.cls-16{stroke-dasharray:1.85 1.85;}.cls-17{stroke-dasharray:2.34 2.34;}.cls-18{stroke-dasharray:2.11 2.11;}</style></defs><rect class="cls-1" x="120.78" y="0.5" width="467.22" height="199.33"/><circle class="cls-1" cx="152.73" cy="180.65" r="11.74"/><path class="cls-2" d="M217.58,264.38l-.83,2.55h-1.08l2.74-8.09h1.26l2.76,8.09h-1.12l-.86-2.55Zm2.65-.81-.8-2.33c-.17-.53-.29-1-.41-1.47h0c-.11.46-.24,1-.4,1.46l-.79,2.34Z" transform="translate(-69.5 -82.16)"/><path class="cls-2" d="M225.54,260.11h0l-1.36.74L224,260l1.7-.91h.9v7.8h-1Z" transform="translate(-69.5 -82.16)"/><circle class="cls-1" cx="183.67" cy="180.65" r="11.74"/><path class="cls-2" d="M248.53,264.38l-.84,2.55h-1.08l2.75-8.09h1.26l2.76,8.09h-1.12l-.86-2.55Zm2.65-.81-.8-2.33c-.17-.53-.29-1-.41-1.47h0c-.1.46-.24,1-.39,1.46l-.79,2.34Z" transform="translate(-69.5 -82.16)"/><path class="cls-2" d="M254.19,266.93v-.65l.83-.8c2-1.9,2.9-2.91,2.9-4.08a1.38,1.38,0,0,0-1.53-1.52,2.66,2.66,0,0,0-1.66.65l-.33-.74a3.49,3.49,0,0,1,2.2-.79,2.19,2.19,0,0,1,2.38,2.27c0,1.44-1,2.6-2.69,4.18l-.61.58v0h3.49v.88Z" transform="translate(-69.5 -82.16)"/><circle class="cls-1" cx="213.55" cy="180.65" r="11.74"/><path class="cls-2" d="M278.41,264.38l-.84,2.55h-1.08l2.75-8.09h1.25l2.76,8.09h-1.11l-.87-2.55Zm2.65-.81-.81-2.33c-.16-.53-.28-1-.4-1.47h0c-.11.46-.24,1-.39,1.46l-.8,2.34Z" transform="translate(-69.5 -82.16)"/><path class="cls-2" d="M284.32,265.73a3.66,3.66,0,0,0,1.73.48c1.34,0,1.78-.85,1.76-1.51,0-1.1-1-1.56-2-1.56h-.59v-.79h.59c.77,0,1.74-.4,1.74-1.32,0-.63-.4-1.18-1.37-1.18a2.89,2.89,0,0,0-1.56.52l-.29-.77a3.82,3.82,0,0,1,2.06-.6c1.53,0,2.23.91,2.23,1.86a2,2,0,0,1-1.44,1.85v0a2,2,0,0,1,1.74,2c0,1.25-1,2.34-2.85,2.34a4,4,0,0,1-2-.53Z" transform="translate(-69.5 -82.16)"/><circle class="cls-1" cx="260.5" cy="180.65" r="11.74"/><path class="cls-2" d="M325.36,264.38l-.84,2.55h-1.08l2.75-8.09h1.26l2.75,8.09h-1.11l-.86-2.55Zm2.65-.81-.8-2.33c-.17-.53-.29-1-.41-1.47h0c-.11.46-.24,1-.39,1.46l-.8,2.34Z" transform="translate(-69.5 -82.16)"/><path class="cls-2" d="M335.47,259.88a3.83,3.83,0,0,0-.79.05,3.13,3.13,0,0,0-2.71,2.76h0a2.38,2.38,0,0,1,4.24,1.61,2.61,2.61,0,0,1-2.6,2.76c-1.66,0-2.75-1.3-2.75-3.32a4.86,4.86,0,0,1,1.32-3.52,4.28,4.28,0,0,1,2.5-1.15,4.73,4.73,0,0,1,.76-.06Zm-1.81,6.36c.9,0,1.51-.75,1.51-1.87a1.58,1.58,0,0,0-1.6-1.79,1.75,1.75,0,0,0-1.53,1,1,1,0,0,0-.1.46c0,1.28.61,2.24,1.71,2.24Z" transform="translate(-69.5 -82.16)"/><circle class="cls-1" cx="403.64" cy="180.65" r="11.74"/><path class="cls-2" d="M468,264.5l-.53,2.43h-.9l1.85-8.09h1l1.8,8.09h-.91l-.53-2.43Zm1.67-.74-.42-2.05c-.12-.58-.23-1.25-.32-1.85h0c-.1.61-.22,1.31-.34,1.86l-.42,2Z" transform="translate(-69.5 -82.16)"/><path class="cls-2" d="M473.75,260.07h0l-1.29.74-.18-.72,1.64-1h.75v7.8h-.9Z" transform="translate(-69.5 -82.16)"/><path class="cls-2" d="M478.38,260.07h0l-1.29.74-.18-.72,1.64-1h.75v7.8h-.89Z" transform="translate(-69.5 -82.16)"/><circle class="cls-1" cx="434.59" cy="180.65" r="11.74"/><path class="cls-2" d="M498.92,264.5l-.53,2.43h-.9l1.85-8.09h1l1.8,8.09h-.92l-.52-2.43Zm1.66-.74-.42-2.05c-.12-.58-.22-1.25-.32-1.85h0c-.09.61-.21,1.31-.33,1.86l-.42,2Z" transform="translate(-69.5 -82.16)"/><path class="cls-2" d="M504.7,260.07h0l-1.3.74-.18-.72,1.64-1h.76v7.8h-.9Z" transform="translate(-69.5 -82.16)"/><path class="cls-2" d="M507.45,266.93v-.6l.65-.89c.93-1.3,2-2.76,2-4.22,0-.87-.37-1.39-1.1-1.39a1.91,1.91,0,0,0-1.13.43l-.22-.7a2.4,2.4,0,0,1,1.52-.52c1.29,0,1.86.95,1.86,2.13,0,1.46-1,2.89-1.93,4.2l-.52.72v0h2.59v.82Z" transform="translate(-69.5 -82.16)"/><circle class="cls-1" cx="464.46" cy="180.65" r="11.74"/><path class="cls-2" d="M528.79,264.5l-.52,2.43h-.9l1.84-8.09h1l1.8,8.09h-.91l-.53-2.43Zm1.67-.74-.42-2.05c-.12-.58-.23-1.25-.32-1.85h0c-.09.61-.21,1.31-.33,1.86l-.42,2Z" transform="translate(-69.5 -82.16)"/><path class="cls-2" d="M534.58,260.07h0l-1.29.74-.18-.72,1.64-1h.76v7.8h-.9Z" transform="translate(-69.5 -82.16)"/><path class="cls-2" d="M537.48,265.93a2.23,2.23,0,0,0,1.13.32,1.35,1.35,0,0,0,1.34-1.54,1.48,1.48,0,0,0-1.57-1.62h-.21v-.7h.18a1.4,1.4,0,0,0,1.4-1.39c0-.79-.42-1.2-1-1.2a1.68,1.68,0,0,0-1,.37l-.19-.69A2.27,2.27,0,0,1,539,259a1.65,1.65,0,0,1,1.72,1.78,2,2,0,0,1-1.16,1.84v0a1.94,1.94,0,0,1,1.37,2.05,2.16,2.16,0,0,1-2.23,2.29,2.57,2.57,0,0,1-1.37-.36Z" transform="translate(-69.5 -82.16)"/><circle class="cls-1" cx="511.41" cy="180.65" r="11.74"/><path class="cls-2" d="M575.75,264.5l-.53,2.43h-.9l1.85-8.09h1l1.79,8.09h-.91l-.53-2.43Zm1.66-.74-.42-2.05c-.12-.58-.22-1.25-.32-1.85h0c-.09.61-.21,1.31-.33,1.86l-.42,2Z" transform="translate(-69.5 -82.16)"/><path class="cls-2" d="M581.53,260.07h0l-1.3.74-.18-.72,1.64-1h.76v7.8h-.9Z" transform="translate(-69.5 -82.16)"/><path class="cls-2" d="M588.09,259.13v.55l-2.52,7.25h-.9l2.47-7v0h-2.8v-.82Z" transform="translate(-69.5 -82.16)"/><path class="cls-2" d="M553.93,270.11a.76.76,0,0,1,0-1.51.7.7,0,0,1,.71.75.71.71,0,0,1-.72.76Zm4,0a.76.76,0,0,1,0-1.51.7.7,0,0,1,.71.75.71.71,0,0,1-.72.76Zm4,0a.76.76,0,0,1,0-1.51.7.7,0,0,1,.71.75.71.71,0,0,1-.72.76Z" transform="translate(-69.5 -82.16)"/><path class="cls-2" d="M303.32,267.19a.76.76,0,1,1,.73-.76.71.71,0,0,1-.73.76Zm4,0a.7.7,0,0,1-.69-.76.71.71,0,0,1,.72-.75.7.7,0,0,1,.71.75.71.71,0,0,1-.72.76Zm4,0a.76.76,0,1,1,.73-.76.71.71,0,0,1-.73.76Z" transform="translate(-69.5 -82.16)"/><path class="cls-2" d="M397.83,267.32a.7.7,0,0,1-.69-.75.72.72,0,0,1,.72-.76.76.76,0,0,1,0,1.51Zm4,0a.7.7,0,0,1-.7-.75.72.72,0,0,1,.72-.76.76.76,0,0,1,0,1.51Zm4,0a.7.7,0,0,1-.7-.75.72.72,0,0,1,.72-.76.76.76,0,0,1,0,1.51Z" transform="translate(-69.5 -82.16)"/><circle class="cls-3" cx="347.2" cy="29.81" r="14.56"/><path class="cls-2" d="M417.26,116.69a6.11,6.11,0,0,1-2.5.45,4.4,4.4,0,0,1-4.65-4.78,4.68,4.68,0,0,1,4.93-4.94,5.46,5.46,0,0,1,2.24.4l-.3,1a4.42,4.42,0,0,0-1.9-.39c-2.21,0-3.68,1.41-3.68,3.88,0,2.31,1.33,3.78,3.61,3.78a4.89,4.89,0,0,0,2-.39Z" transform="translate(-69.5 -82.16)"/><path class="cls-2" d="M423.79,108.93h-3.47l-.35,2.34a4.58,4.58,0,0,1,.74-.06,3.85,3.85,0,0,1,2,.49A2.57,2.57,0,0,1,424,114a3.16,3.16,0,0,1-3.4,3.11,4.45,4.45,0,0,1-2.26-.56l.3-.94a4,4,0,0,0,2,.51,2,2,0,0,0,2.15-2c0-1.17-.8-2-2.61-2a8.16,8.16,0,0,0-1.27.1l.59-4.37h4.35Z" transform="translate(-69.5 -82.16)"/><circle class="cls-3" cx="452.73" cy="128.52" r="14.56"/><path class="cls-2" d="M522.79,215.4a6.11,6.11,0,0,1-2.5.45,4.4,4.4,0,0,1-4.65-4.78,4.68,4.68,0,0,1,4.93-4.94,5.46,5.46,0,0,1,2.24.4l-.3,1a4.42,4.42,0,0,0-1.9-.39c-2.21,0-3.68,1.41-3.68,3.88,0,2.31,1.33,3.78,3.61,3.78a4.89,4.89,0,0,0,2-.39Z" transform="translate(-69.5 -82.16)"/><path class="cls-2" d="M524.18,214.31a4.25,4.25,0,0,0,2,.56c1.57,0,2.07-1,2.06-1.77,0-1.27-1.17-1.82-2.36-1.82h-.68v-.92h.68c.9,0,2-.47,2-1.54,0-.73-.47-1.38-1.6-1.38a3.33,3.33,0,0,0-1.82.61l-.34-.9a4.44,4.44,0,0,1,2.4-.7c1.79,0,2.6,1.06,2.6,2.17a2.29,2.29,0,0,1-1.68,2.16v0a2.34,2.34,0,0,1,2,2.32c0,1.46-1.15,2.73-3.32,2.73a4.63,4.63,0,0,1-2.36-.61Z" transform="translate(-69.5 -82.16)"/><circle class="cls-3" cx="206.99" cy="128.52" r="14.56"/><circle class="cls-3" cx="332.64" cy="128.52" r="14.56"/><circle class="cls-3" cx="266.74" cy="81.9" r="14.56"/><path class="cls-2" d="M277.05,215.4a6.1,6.1,0,0,1-2.49.45,4.41,4.41,0,0,1-4.66-4.78,4.69,4.69,0,0,1,4.94-4.94,5.54,5.54,0,0,1,2.24.4l-.31,1a4.4,4.4,0,0,0-1.89-.39c-2.22,0-3.69,1.41-3.69,3.88,0,2.31,1.33,3.78,3.62,3.78a4.88,4.88,0,0,0,2-.39Z" transform="translate(-69.5 -82.16)"/><path class="cls-2" d="M280.83,207.75h0l-1.59.86-.23-.94,2-1.07h1v9.11h-1.19Z" transform="translate(-69.5 -82.16)"/><path class="cls-2" d="M402.28,215.4a6,6,0,0,1-2.49.45,4.4,4.4,0,0,1-4.65-4.78,4.68,4.68,0,0,1,4.93-4.94,5.5,5.5,0,0,1,2.24.4l-.31,1a4.37,4.37,0,0,0-1.89-.39c-2.21,0-3.68,1.41-3.68,3.88,0,2.31,1.33,3.78,3.61,3.78a4.84,4.84,0,0,0,2-.39Z" transform="translate(-69.5 -82.16)"/><path class="cls-2" d="M403.38,215.71V215l1-.94c2.33-2.21,3.39-3.39,3.39-4.76a1.61,1.61,0,0,0-1.79-1.78,3.11,3.11,0,0,0-1.94.77l-.39-.87a4,4,0,0,1,2.58-.92A2.55,2.55,0,0,1,409,209.1c0,1.68-1.22,3-3.13,4.88l-.72.68v0h4.08v1Z" transform="translate(-69.5 -82.16)"/><path class="cls-2" d="M336,168.45a6.06,6.06,0,0,1-2.49.45,4.4,4.4,0,0,1-4.65-4.78,4.69,4.69,0,0,1,4.93-5,5.45,5.45,0,0,1,2.24.41l-.31,1a4.4,4.4,0,0,0-1.89-.39c-2.22,0-3.69,1.41-3.69,3.88,0,2.31,1.33,3.78,3.62,3.78a4.88,4.88,0,0,0,2-.39Z" transform="translate(-69.5 -82.16)"/><path class="cls-2" d="M340.9,168.76v-2.5h-4.23v-.8l4.06-5.81h1.33v5.66h1.28v.95h-1.28v2.5Zm0-3.45v-3c0-.48,0-1,0-1.43h0c-.28.53-.5.93-.75,1.35l-2.23,3.09v0Z" transform="translate(-69.5 -82.16)"/><line class="cls-2" x1="162" y1="173.34" x2="195" y2="138.34"/><line class="cls-1" x1="168.08" y1="166.89" x2="168.76" y2="166.17"/><line class="cls-4" x1="170.06" y1="164.79" x2="187.59" y2="146.2"/><line class="cls-1" x1="188.24" y1="145.51" x2="188.92" y2="144.79"/><polygon class="cls-2" points="171.55 167.44 162 173.34 167.32 163.46 171.55 167.44"/><polygon class="cls-2" points="189.68 148.22 195 138.34 185.45 144.23 189.68 148.22"/><line class="cls-2" x1="219" y1="119.34" x2="255.5" y2="91.84"/><line class="cls-1" x1="226.08" y1="114.01" x2="226.87" y2="113.41"/><line class="cls-5" x1="228.47" y1="112.2" x2="246.83" y2="98.37"/><line class="cls-1" x1="247.63" y1="97.77" x2="248.42" y2="97.17"/><polygon class="cls-2" points="229.41 115.14 219 119.34 225.91 110.5 229.41 115.14"/><polygon class="cls-2" points="248.59 100.68 255.5 91.84 245.09 96.04 248.59 100.68"/><line class="cls-2" x1="321.5" y1="118.84" x2="278.5" y2="89.84"/><line class="cls-1" x1="314.15" y1="113.89" x2="313.33" y2="113.33"/><line class="cls-6" x1="311.76" y1="112.27" x2="287.46" y2="95.88"/><line class="cls-1" x1="286.67" y1="95.35" x2="285.85" y2="94.79"/><polygon class="cls-2" points="314.14 110.37 321.5 118.84 310.89 115.19 314.14 110.37"/><polygon class="cls-2" points="289.11 93.49 278.5 89.84 285.86 98.31 289.11 93.49"/><line class="cls-2" x1="443.5" y1="116.84" x2="358.5" y2="38.84"/><line class="cls-1" x1="436.97" y1="110.85" x2="436.24" y2="110.17"/><line class="cls-7" x1="434.74" y1="108.8" x2="366.51" y2="46.19"/><line class="cls-1" x1="365.76" y1="45.51" x2="365.03" y2="44.83"/><polygon class="cls-2" points="437.48 107.37 443.5 116.84 433.55 111.65 437.48 107.37"/><polygon class="cls-2" points="368.45 44.03 358.5 38.84 364.52 48.31 368.45 44.03"/><line class="cls-2" x1="279" y1="73.34" x2="333.5" y2="35.84"/><line class="cls-1" x1="286.3" y1="68.32" x2="287.12" y2="67.75"/><line class="cls-8" x1="288.79" y1="66.61" x2="324.55" y2="42"/><line class="cls-1" x1="325.38" y1="41.43" x2="326.2" y2="40.86"/><polygon class="cls-2" points="289.58 69.59 279 73.34 286.28 64.8 289.58 69.59"/><polygon class="cls-2" points="326.22 44.38 333.5 35.84 322.92 39.59 326.22 44.38"/><line class="cls-2" x1="189.67" y1="170.56" x2="201.81" y2="143.08"/><line class="cls-1" x1="193.25" y1="162.46" x2="193.66" y2="161.55"/><line class="cls-9" x1="194.49" y1="159.66" x2="197.41" y2="153.04"/><line class="cls-1" x1="197.83" y1="152.1" x2="198.23" y2="151.19"/><polygon class="cls-2" points="196.71 161.82 189.68 170.56 191.4 159.47 196.71 161.82"/><polygon class="cls-2" points="200.09 154.17 201.81 143.08 194.77 151.82 200.09 154.17"/><line class="cls-2" x1="309" y1="168.34" x2="325.81" y2="141.08"/><line class="cls-1" x1="313.65" y1="160.8" x2="314.18" y2="159.95"/><line class="cls-10" x1="315.1" y1="158.45" x2="320.17" y2="150.22"/><line class="cls-1" x1="320.64" y1="149.47" x2="321.16" y2="148.62"/><polygon class="cls-2" points="317.16 160.64 309 168.34 312.22 157.59 317.16 160.64"/><polygon class="cls-2" points="322.59 151.83 325.81 141.08 317.65 148.78 322.59 151.83"/><line class="cls-2" x1="354" y1="167.34" x2="341" y2="140.34"/><line class="cls-1" x1="350.16" y1="159.36" x2="349.72" y2="158.46"/><line class="cls-11" x1="348.83" y1="156.61" x2="345.72" y2="150.15"/><line class="cls-1" x1="345.28" y1="149.22" x2="344.84" y2="148.32"/><polygon class="cls-2" points="351.92 156.31 354 167.34 346.68 158.83 351.92 156.31"/><polygon class="cls-2" points="348.32 148.85 341 140.34 343.08 151.37 348.32 148.85"/><line class="cls-2" x1="410" y1="170.34" x2="440" y2="136.34"/><line class="cls-1" x1="415.86" y1="163.7" x2="416.52" y2="162.95"/><line class="cls-12" x1="417.83" y1="161.47" x2="432.82" y2="144.47"/><line class="cls-1" x1="433.48" y1="143.73" x2="434.14" y2="142.98"/><polygon class="cls-2" points="419.35 164.13 410 170.34 414.99 160.29 419.35 164.13"/><polygon class="cls-2" points="435.01 146.39 440 136.34 430.65 142.55 435.01 146.39"/><line class="cls-2" x1="464" y1="170.34" x2="457" y2="142.34"/><line class="cls-1" x1="461.85" y1="161.74" x2="461.61" y2="160.77"/><line class="cls-13" x1="461.17" y1="159" x2="459.61" y2="152.79"/><line class="cls-1" x1="459.39" y1="151.9" x2="459.15" y2="150.93"/><polygon class="cls-2" points="464.19 159.12 464 170.34 458.55 160.53 464.19 159.12"/><polygon class="cls-2" points="462.45 152.15 457 142.34 456.81 153.56 462.45 152.15"/><line class="cls-2" x1="505" y1="170.34" x2="464" y2="138.34"/><line class="cls-1" x1="498.02" y1="164.89" x2="497.23" y2="164.27"/><line class="cls-14" x1="495.73" y1="163.1" x2="472.52" y2="144.99"/><line class="cls-1" x1="471.77" y1="144.41" x2="470.98" y2="143.79"/><polygon class="cls-2" points="498.24 161.38 505 170.34 494.67 165.96 498.24 161.38"/><polygon class="cls-2" points="474.33 142.72 464 138.34 470.76 147.3 474.33 142.72"/><line class="cls-2" x1="435" y1="168.34" x2="448" y2="142.34"/><line class="cls-1" x1="438.96" y1="160.42" x2="439.41" y2="159.52"/><line class="cls-15" x1="440.25" y1="157.85" x2="443.17" y2="151.99"/><line class="cls-1" x1="443.59" y1="151.16" x2="444.04" y2="150.26"/><polygon class="cls-2" points="442.45 159.94 435 168.34 437.25 157.34 442.45 159.94"/><polygon class="cls-2" points="445.75 153.34 448 142.34 440.55 150.74 445.75 153.34"/><line class="cls-2" x1="333" y1="168.34" x2="333.81" y2="143.08"/><line class="cls-1" x1="333.28" y1="159.48" x2="333.32" y2="158.49"/><line class="cls-16" x1="333.38" y1="156.64" x2="333.46" y2="153.86"/><line class="cls-1" x1="333.49" y1="152.94" x2="333.53" y2="151.94"/><polygon class="cls-2" points="336.25 157.6 333 168.34 330.44 157.41 336.25 157.6"/><polygon class="cls-2" points="336.37 154.01 333.81 143.08 330.56 153.82 336.37 154.01"/><line class="cls-2" x1="212.98" y1="169.91" x2="210" y2="143.34"/><line class="cls-1" x1="211.99" y1="161.11" x2="211.88" y2="160.11"/><line class="cls-17" x1="211.62" y1="157.79" x2="211.23" y2="154.3"/><line class="cls-1" x1="211.1" y1="153.14" x2="210.99" y2="152.14"/><polygon class="cls-2" points="214.66 158.81 212.98 169.91 208.88 159.46 214.66 158.81"/><polygon class="cls-2" points="214.09 153.79 210 143.34 208.32 154.44 214.09 153.79"/><line class="cls-2" x1="253.06" y1="170.84" x2="219.32" y2="137.84"/><line class="cls-1" x1="246.72" y1="164.64" x2="246.01" y2="163.94"/><line class="cls-18" x1="244.5" y1="162.47" x2="227.13" y2="145.47"/><line class="cls-1" x1="226.37" y1="144.73" x2="225.66" y2="144.03"/><polygon class="cls-2" points="247.34 161.18 253.06 170.84 243.28 165.34 247.34 161.18"/><polygon class="cls-2" points="229.1 143.34 219.32 137.84 225.04 147.5 229.1 143.34"/><path class="cls-2" d="M598.52,206.26h1.23v8.42h4v1h-5.26Z" transform="translate(-69.5 -82.16)"/><path class="cls-2" d="M605.6,212.53a2.16,2.16,0,0,0,2.31,2.34,4.35,4.35,0,0,0,1.88-.35l.22.89a5.61,5.61,0,0,1-2.26.43,3.17,3.17,0,0,1-3.34-3.42c0-2,1.22-3.65,3.19-3.65,2.22,0,2.79,1.94,2.79,3.19a2.84,2.84,0,0,1,0,.57Zm3.6-.88a1.75,1.75,0,0,0-1.69-2,2,2,0,0,0-1.89,2Z" transform="translate(-69.5 -82.16)"/><path class="cls-2" d="M612.39,208.92l1.33,3.8a17.28,17.28,0,0,1,.55,1.75h0c.15-.56.35-1.12.57-1.75l1.32-3.8h1.29l-2.66,6.78h-1.18l-2.58-6.78Z" transform="translate(-69.5 -82.16)"/><path class="cls-2" d="M619.21,212.53a2.16,2.16,0,0,0,2.31,2.34,4.38,4.38,0,0,0,1.88-.35l.22.89a5.62,5.62,0,0,1-2.27.43,3.16,3.16,0,0,1-3.33-3.42c0-2,1.22-3.65,3.19-3.65,2.22,0,2.79,1.94,2.79,3.19a2.84,2.84,0,0,1,0,.57Zm3.6-.88a1.75,1.75,0,0,0-1.7-2,2,2,0,0,0-1.89,2Z" transform="translate(-69.5 -82.16)"/><path class="cls-2" d="M625.52,205.75h1.23v9.95h-1.23Z" transform="translate(-69.5 -82.16)"/><path class="cls-2" d="M634.08,207.74h0l-1.58.86-.24-.94,2-1.07h1v9.11h-1.19Z" transform="translate(-69.5 -82.16)"/><path class="cls-2" d="M599.52,159.26h1.23v8.42h4v1h-5.26Z" transform="translate(-69.5 -82.16)"/><path class="cls-2" d="M606.6,165.53a2.16,2.16,0,0,0,2.31,2.34,4.35,4.35,0,0,0,1.88-.35l.22.89a5.61,5.61,0,0,1-2.26.43,3.17,3.17,0,0,1-3.34-3.42c0-2,1.22-3.65,3.19-3.65,2.22,0,2.79,1.94,2.79,3.19a2.84,2.84,0,0,1,0,.57Zm3.6-.88a1.75,1.75,0,0,0-1.69-2,2,2,0,0,0-1.89,2Z" transform="translate(-69.5 -82.16)"/><path class="cls-2" d="M613.39,161.92l1.33,3.8a17.28,17.28,0,0,1,.55,1.75h0c.15-.56.35-1.12.57-1.75l1.32-3.8h1.29l-2.66,6.78h-1.18l-2.58-6.78Z" transform="translate(-69.5 -82.16)"/><path class="cls-2" d="M620.21,165.53a2.16,2.16,0,0,0,2.31,2.34,4.38,4.38,0,0,0,1.88-.35l.22.89a5.62,5.62,0,0,1-2.27.43,3.16,3.16,0,0,1-3.33-3.42c0-2,1.22-3.65,3.19-3.65,2.22,0,2.79,1.94,2.79,3.19a2.84,2.84,0,0,1,0,.57Zm3.6-.88a1.75,1.75,0,0,0-1.7-2,2,2,0,0,0-1.89,2Z" transform="translate(-69.5 -82.16)"/><path class="cls-2" d="M626.52,158.75h1.23v9.95h-1.23Z" transform="translate(-69.5 -82.16)"/><path class="cls-2" d="M632.4,168.7v-.76l1-.94c2.32-2.21,3.39-3.39,3.39-4.76a1.61,1.61,0,0,0-1.79-1.78,3.11,3.11,0,0,0-1.94.77l-.39-.86a4.05,4.05,0,0,1,2.58-.93,2.56,2.56,0,0,1,2.77,2.65c0,1.68-1.22,3-3.14,4.89l-.71.67v0h4.08v1Z" transform="translate(-69.5 -82.16)"/><path class="cls-2" d="M599.52,111.26h1.23v8.42h4v1h-5.26Z" transform="translate(-69.5 -82.16)"/><path class="cls-2" d="M606.6,117.53a2.16,2.16,0,0,0,2.31,2.34,4.35,4.35,0,0,0,1.88-.35l.22.89a5.61,5.61,0,0,1-2.26.43,3.17,3.17,0,0,1-3.34-3.42c0-2,1.22-3.65,3.19-3.65,2.22,0,2.79,1.94,2.79,3.19a2.84,2.84,0,0,1,0,.57Zm3.6-.88a1.75,1.75,0,0,0-1.69-2,2,2,0,0,0-1.89,2Z" transform="translate(-69.5 -82.16)"/><path class="cls-2" d="M613.39,113.92l1.33,3.8a17.28,17.28,0,0,1,.55,1.75h0c.15-.56.35-1.12.57-1.75l1.32-3.8h1.29l-2.66,6.78h-1.18l-2.58-6.78Z" transform="translate(-69.5 -82.16)"/><path class="cls-2" d="M620.21,117.53a2.16,2.16,0,0,0,2.31,2.34,4.38,4.38,0,0,0,1.88-.35l.22.89a5.62,5.62,0,0,1-2.27.43,3.16,3.16,0,0,1-3.33-3.42c0-2,1.22-3.65,3.19-3.65,2.22,0,2.79,1.94,2.79,3.19a2.84,2.84,0,0,1,0,.57Zm3.6-.88a1.75,1.75,0,0,0-1.7-2,2,2,0,0,0-1.89,2Z" transform="translate(-69.5 -82.16)"/><path class="cls-2" d="M626.52,110.75h1.23v10h-1.23Z" transform="translate(-69.5 -82.16)"/><path class="cls-2" d="M632.7,119.3a4.24,4.24,0,0,0,2,.56c1.57,0,2.08-1,2.06-1.77,0-1.27-1.16-1.82-2.35-1.82h-.69v-.92h.69c.9,0,2-.46,2-1.54,0-.73-.46-1.37-1.6-1.37a3.39,3.39,0,0,0-1.82.6l-.33-.9a4.4,4.4,0,0,1,2.39-.7c1.79,0,2.61,1.07,2.61,2.17a2.3,2.3,0,0,1-1.68,2.16v0a2.34,2.34,0,0,1,2,2.32c0,1.46-1.15,2.73-3.32,2.73a4.7,4.7,0,0,1-2.37-.61Z" transform="translate(-69.5 -82.16)"/><rect class="cls-19" y="0.34" width="702" height="199"/></svg>