<svg id="Ebene_1" data-name="Ebene 1" xmlns="http://www.w3.org/2000/svg" viewBox="0 0 716.72 125.21"><defs><style>.cls-1,.cls-5,.cls-6,.cls-7{fill:none;}.cls-1,.cls-2,.cls-3,.cls-5,.cls-6{stroke:#231f20;stroke-miterlimit:10;}.cls-2,.cls-3{fill:#fff;}.cls-3{stroke-width:3px;}.cls-4{fill:#231f20;}.cls-5{stroke-dasharray:3.84 3.84;}.cls-6{stroke-dasharray:4 4;}</style></defs><rect class="cls-1" x="245.59" y="0.57" width="196.06" height="124.14"/><circle class="cls-2" cx="298.29" cy="33.23" r="17.07"/><circle class="cls-2" cx="298.29" cy="85.06" r="17.07"/><circle class="cls-3" cx="390.8" cy="59.04" r="17.07"/><path class="cls-4" d="M364.22,107.94l-1,3H362l3.21-9.44h1.47l3.22,9.44h-1.3l-1-3Zm3.09-1-.94-2.72c-.19-.62-.33-1.18-.47-1.72h0c-.12.54-.28,1.13-.46,1.71l-.92,2.73Z" transform="translate(-71.26 -72.8)"/><path class="cls-4" d="M373.5,103h0l-1.58.86-.24-.94,2-1.06h1.05v9.1H373.5Z" transform="translate(-71.26 -72.8)"/><path class="cls-4" d="M364.82,159.94l-1,3h-1.26l3.21-9.44h1.47l3.22,9.44h-1.3l-1-3Zm3.1-.95-.94-2.72c-.19-.62-.33-1.18-.47-1.72h-.05c-.12.54-.28,1.13-.46,1.71l-.92,2.73Z" transform="translate(-71.26 -72.8)"/><path class="cls-4" d="M371.43,162.91v-.76l1-.94c2.32-2.21,3.39-3.39,3.39-4.76a1.62,1.62,0,0,0-1.79-1.78,3.11,3.11,0,0,0-1.94.77l-.39-.87a4.1,4.1,0,0,1,2.58-.92A2.56,2.56,0,0,1,377,156.3c0,1.68-1.22,3-3.14,4.89l-.71.67v0h4.07v1Z" transform="translate(-71.26 -72.8)"/><path class="cls-4" d="M457.25,134.3l-.66,2.42h-2.22l2.89-9.44h2.79l2.94,9.44h-2.3L460,134.3Zm2.39-1.6-.59-2c-.15-.56-.32-1.28-.46-1.82h0c-.13.56-.28,1.27-.42,1.82l-.58,2Z" transform="translate(-71.26 -72.8)"/><path class="cls-4" d="M464.29,134.64a4.8,4.8,0,0,0,2.11.56c1.11,0,1.67-.54,1.67-1.21,0-.91-.9-1.32-1.82-1.32h-.87v-1.52h.83c.71,0,1.61-.28,1.61-1.05,0-.55-.44-1-1.35-1a4.11,4.11,0,0,0-1.89.55l-.43-1.54a5.62,5.62,0,0,1,2.81-.69c1.94,0,3,1,3,2.27a2.17,2.17,0,0,1-1.66,2.12v0a2.25,2.25,0,0,1,2,2.22c0,1.6-1.41,2.78-3.72,2.78a5.58,5.58,0,0,1-2.71-.63Z" transform="translate(-71.26 -72.8)"/><line class="cls-4" x1="315.36" y1="33.23" x2="375.73" y2="50.3"/><line class="cls-1" x1="315.36" y1="33.23" x2="317.29" y2="33.77"/><line class="cls-5" x1="320.98" y1="34.82" x2="363.43" y2="46.82"/><line class="cls-1" x1="365.28" y1="47.34" x2="367.2" y2="47.89"/><polygon class="cls-4" points="364.51 50.15 375.73 50.3 366.09 44.55 364.51 50.15"/><line class="cls-4" x1="375.73" y1="67.98" x2="315.36" y2="85.06"/><line class="cls-6" x1="367.2" y1="70.39" x2="315.36" y2="85.06"/><polygon class="cls-4" points="364.51 68.14 375.73 67.98 366.09 73.73 364.51 68.14"/><rect class="cls-7" width="716.72" height="124.71"/></svg>