<svg id="Ebene_1" data-name="Ebene 1" xmlns="http://www.w3.org/2000/svg" viewBox="0 0 716.72 169.63"><defs><style>.cls-1,.cls-10,.cls-11,.cls-12,.cls-6,.cls-7,.cls-8,.cls-9{fill:none;}.cls-1,.cls-10,.cls-11,.cls-2,.cls-3,.cls-4,.cls-6,.cls-7,.cls-8,.cls-9{stroke:#231f20;stroke-miterlimit:10;}.cls-2,.cls-3{fill:#fff;}.cls-3{stroke-width:3px;}.cls-4{fill:#f4eb3c;}.cls-5{fill:#231f20;}.cls-6{stroke-dasharray:3.85 3.85;}.cls-7{stroke-dasharray:3.89 3.89;}.cls-8{stroke-dasharray:3.6 3.6;}.cls-9{stroke-dasharray:3.97 3.97;}.cls-10{stroke-dasharray:4.2 4.2;}.cls-11{stroke-dasharray:4 4;}</style></defs><rect class="cls-1" x="192.08" y="0.5" width="308.23" height="168.63"/><circle class="cls-2" cx="234.2" cy="90.13" r="17.07"/><circle class="cls-2" cx="276.04" cy="112.66" r="17.07"/><circle class="cls-2" cx="419.86" cy="112.66" r="17.07"/><circle class="cls-3" cx="352.67" cy="39.41" r="17.07"/><circle class="cls-2" cx="459.66" cy="90.13" r="17.07"/><circle class="cls-2" cx="318.53" cy="125.91" r="17.07"/><polygon class="cls-4" points="377.95 151.02 364.51 138.92 346.93 143.12 354.28 126.61 344.85 111.18 362.83 113.08 374.58 99.33 378.34 117.02 395.04 123.95 379.38 132.99 377.95 151.02"/><circle class="cls-2" cx="368.71" cy="125.91" r="17.07"/><path class="cls-5" d="M296.94,179.92l-1,3h-1.27l3.21-9.44h1.47l3.22,9.44h-1.3l-1-3ZM300,179l-.94-2.72c-.19-.62-.33-1.18-.47-1.72h-.05c-.12.54-.28,1.13-.46,1.71l-.92,2.73Z" transform="translate(-68.07 -87.88)"/><path class="cls-5" d="M306.22,174.93h0l-1.58.86-.24-.94,2-1.06h1.05v9.1h-1.19Z" transform="translate(-68.07 -87.88)"/><path class="cls-5" d="M339.38,202.62l-1,3h-1.26l3.21-9.44h1.47l3.22,9.44h-1.3l-1-3Zm3.1-1-.94-2.72c-.2-.61-.34-1.17-.48-1.72h0c-.12.55-.28,1.14-.46,1.71l-.93,2.73Z" transform="translate(-68.07 -87.88)"/><path class="cls-5" d="M346,205.59v-.75l1-.94c2.32-2.22,3.39-3.39,3.39-4.76a1.62,1.62,0,0,0-1.8-1.78,3.11,3.11,0,0,0-1.93.77l-.39-.87a4,4,0,0,1,2.57-.93,2.56,2.56,0,0,1,2.78,2.65c0,1.68-1.22,3-3.14,4.89l-.71.67v0h4.07v1Z" transform="translate(-68.07 -87.88)"/><path class="cls-5" d="M482.59,203.06l-1,3h-1.26l3.21-9.44H485l3.22,9.44H487l-1-3Zm3.1-.95-.94-2.72c-.2-.61-.34-1.17-.48-1.72h0c-.13.55-.28,1.13-.46,1.71l-.93,2.73Z" transform="translate(-68.07 -87.88)"/><path class="cls-5" d="M494.63,198h-3.47l-.35,2.34a6.28,6.28,0,0,1,.74-.05,3.76,3.76,0,0,1,2,.49,2.57,2.57,0,0,1,1.31,2.34,3.16,3.16,0,0,1-3.4,3.11,4.45,4.45,0,0,1-2.26-.56l.3-.94a4.15,4.15,0,0,0,2,.5,2,2,0,0,0,2.15-2c0-1.16-.8-2-2.61-2a7.08,7.08,0,0,0-1.27.1l.59-4.37h4.35Z" transform="translate(-68.07 -87.88)"/><path class="cls-5" d="M411.93,129.75l-.66,2.43h-2.21l2.88-9.45h2.79l2.94,9.45h-2.3l-.73-2.43Zm2.39-1.59-.59-2c-.15-.56-.32-1.27-.46-1.82h0c-.13.56-.28,1.28-.42,1.82l-.58,2Z" transform="translate(-68.07 -87.88)"/><path class="cls-5" d="M420.26,125h0l-1.74.83-.35-1.6,2.42-1.12h1.76v9.11h-2.06Z" transform="translate(-68.07 -87.88)"/><path class="cls-5" d="M428.24,132.33c-2.36,0-3.39-2.11-3.41-4.69s1.11-4.72,3.46-4.72,3.39,2.17,3.39,4.66c0,2.8-1.13,4.75-3.43,4.75Zm0-1.61c.83,0,1.27-1,1.27-3.11s-.43-3.08-1.29-3.08-1.3,1-1.3,3.08.49,3.11,1.3,3.11Z" transform="translate(-68.07 -87.88)"/><path class="cls-5" d="M522.39,179.92l-1,3h-1.26l3.21-9.44h1.47l3.22,9.44h-1.3l-1-3Zm3.1-.95-.94-2.72c-.2-.62-.34-1.18-.48-1.72h0c-.13.54-.28,1.13-.46,1.71l-.93,2.73Z" transform="translate(-68.07 -87.88)"/><path class="cls-5" d="M534.2,174.65a5.44,5.44,0,0,0-.93.07,3.64,3.64,0,0,0-3.16,3.23h0a2.78,2.78,0,0,1,5,1.87,3,3,0,0,1-3,3.22c-1.93,0-3.21-1.51-3.21-3.88a5.63,5.63,0,0,1,1.55-4.1,4.87,4.87,0,0,1,2.91-1.34,5.4,5.4,0,0,1,.9-.07Zm-2.12,7.44c1,0,1.77-.88,1.77-2.18a1.85,1.85,0,0,0-1.88-2.09,2,2,0,0,0-1.78,1.12,1.15,1.15,0,0,0-.13.53c0,1.5.72,2.62,2,2.62Z" transform="translate(-68.07 -87.88)"/><path class="cls-5" d="M431.44,215.71l-1,3H429.2l3.21-9.45h1.47l3.22,9.45h-1.3l-1-3Zm3.1-1L433.6,212c-.2-.62-.34-1.18-.48-1.73h0c-.12.55-.28,1.14-.46,1.71l-.93,2.73Z" transform="translate(-68.07 -87.88)"/><path class="cls-5" d="M441.86,218.68v-2.5h-4.23v-.8l4.06-5.81H443v5.66h1.28v1H443v2.5Zm0-3.45v-3c0-.48,0-.95,0-1.43h0c-.28.53-.51.93-.76,1.35l-2.22,3.09v0Z" transform="translate(-68.07 -87.88)"/><path class="cls-5" d="M381.13,214.65l-1,3h-1.26l3.21-9.44h1.47l3.22,9.44h-1.3l-1-3Zm3.1-1-.94-2.72c-.2-.62-.34-1.18-.48-1.72h0c-.13.54-.28,1.13-.46,1.7l-.93,2.74Z" transform="translate(-68.07 -87.88)"/><path class="cls-5" d="M388,216.22a4.25,4.25,0,0,0,2,.56c1.57,0,2.07-1,2.06-1.77,0-1.27-1.17-1.82-2.36-1.82h-.68v-.92h.68c.9,0,2-.47,2-1.54,0-.73-.47-1.38-1.6-1.38a3.33,3.33,0,0,0-1.82.61l-.34-.9a4.44,4.44,0,0,1,2.4-.7c1.79,0,2.6,1.06,2.6,2.17a2.29,2.29,0,0,1-1.68,2.16v0a2.34,2.34,0,0,1,2,2.32c0,1.46-1.15,2.73-3.32,2.73a4.7,4.7,0,0,1-2.37-.61Z" transform="translate(-68.07 -87.88)"/><line class="cls-5" x1="249.59" y1="82.73" x2="336.4" y2="44.29"/><line class="cls-1" x1="257.7" y1="79.15" x2="259.52" y2="78.34"/><line class="cls-6" x1="263.05" y1="76.78" x2="324.71" y2="49.47"/><line class="cls-1" x1="326.48" y1="48.69" x2="328.3" y2="47.88"/><polygon class="cls-5" points="260.68 81 249.59 82.73 258.33 75.69 260.68 81"/><polygon class="cls-5" points="327.67 51.34 336.41 44.29 325.32 46.02 327.67 51.34"/><line class="cls-5" x1="286.71" y1="99.34" x2="340.65" y2="51.21"/><line class="cls-1" x1="293.32" y1="93.44" x2="294.81" y2="92.11"/><line class="cls-7" x1="297.71" y1="89.52" x2="331.1" y2="59.74"/><line class="cls-1" x1="332.55" y1="58.44" x2="334.04" y2="57.11"/><polygon class="cls-5" points="296.73 94.29 286.71 99.34 292.86 89.95 296.73 94.29"/><polygon class="cls-5" points="334.5 60.6 340.65 51.22 330.63 56.26 334.5 60.6"/><line class="cls-5" x1="355.73" y1="56.49" x2="363.4" y2="110.06"/><line class="cls-1" x1="356.99" y1="65.26" x2="357.27" y2="67.24"/><line class="cls-8" x1="357.78" y1="70.8" x2="361.61" y2="97.53"/><line class="cls-1" x1="361.86" y1="99.31" x2="362.15" y2="101.29"/><polygon class="cls-5" points="354.39 67.63 355.73 56.49 360.14 66.81 354.39 67.63"/><polygon class="cls-5" points="358.99 99.74 363.4 110.06 364.74 98.92 358.99 99.74"/><line class="cls-5" x1="362.83" y1="53.14" x2="408.88" y2="99.59"/><line class="cls-1" x1="369.07" y1="59.43" x2="370.48" y2="60.85"/><line class="cls-9" x1="373.27" y1="63.67" x2="399.84" y2="90.46"/><line class="cls-1" x1="401.24" y1="91.87" x2="402.64" y2="93.29"/><polygon class="cls-5" points="368.4 62.88 362.83 53.14 372.53 58.79 368.4 62.88"/><polygon class="cls-5" points="399.19 93.93 408.88 99.59 403.31 89.84 399.19 93.93"/><line class="cls-5" x1="368.71" y1="44.45" x2="444.27" y2="82.73"/><line class="cls-1" x1="376.61" y1="48.45" x2="378.4" y2="49.36"/><line class="cls-10" x1="382.14" y1="51.25" x2="432.71" y2="76.88"/><line class="cls-1" x1="434.58" y1="77.82" x2="436.36" y2="78.73"/><polygon class="cls-5" points="377.06 51.94 368.71 44.45 379.69 46.76 377.06 51.94"/><polygon class="cls-5" points="433.28 80.42 444.26 82.73 435.91 75.24 433.28 80.42"/><line class="cls-5" x1="347.75" y1="56.49" x2="324.87" y2="110.06"/><line class="cls-11" x1="344.27" y1="64.64" x2="328.35" y2="101.92"/><polygon class="cls-5" points="340.82 65.32 347.75 56.49 346.17 67.6 340.82 65.32"/><polygon class="cls-5" points="326.46 98.95 324.87 110.06 331.8 101.23 326.46 98.95"/><rect class="cls-12" y="0.37" width="716.72" height="168.76"/></svg>